{
  "accessors": [
    {
      "bufferView": 0,
      "componentType": 5125,
      "count": 60,
      "type": "SCALAR"
    },
    {
      "bufferView": 1,
      "componentType": 5126,
      "count": 28,
      "max": [
        0.08205900671276561,
        -0.019640966305012497,
        0.020599988662229004
      ],
      "min": [
        0.07148979312693576,
        -0.06099865570917554,
        -0.02060001029697146
      ],
      "type": "VEC3"
    },
    {
      "bufferView": 2,
      "componentType": 5126,
      "count": 28,
      "max": [
        1.0,
        1.0,
        1.0
      ],
      "min": [
        -1.0,
        -1.0,
        -1.0
      ],
      "type": "VEC3"
    },
    {
      "bufferView": 3,
      "componentType": 5126,
      "count": 28,
      "max": [
        0.8995416285195401,
        1.0
      ],
      "min": [
        0.0,
        0.0
      ],
      "type": "VEC2"
    },
    {
      "bufferView": 4,
      "componentType": 5125,
      "count": 168,
      "type": "SCALAR"
    },
    {
      "bufferView": 5,
      "componentType": 5126,
      "count": 70,
      "max": [
        0.11226562216832947,
        0.023740795288982083,
        0.020599988662228997
      ],
      "min": [
        0.10273776596264839,
        0.005586254723525502,
        -0.02060001029697146
      ],
      "type": "VEC3"
    },
    {
      "bufferView": 6,
      "componentType": 5126,
      "count": 70,
      "max": [
        1.0,
        1.0,
        1.0
      ],
      "min": [
        -1.0,
        -1.0,
        -1.0
      ],
      "type": "VEC3"
    },
    {
      "bufferView": 7,
      "componentType": 5126,
      "count": 70,
      "max": [
        0.9240528508058596,
        1.0
      ],
      "min": [
        0.0,
        0.0
      ],
      "type": "VEC2"
    },
    {
      "bufferView": 8,
      "componentType": 5125,
      "count": 2436,
      "type": "SCALAR"
    },
    {
      "bufferView": 9,
      "componentType": 5126,
      "count": 696,
      "max": [
        0.06648652177033348,
        -0.018822913318060824,
        0.020599988662229025
      ],
      "min": [
        0.04220226943700217,
        -0.06099865570959839,
        -0.02060001029697146
      ],
      "type": "VEC3"
    },
    {
      "bufferView": 10,
      "componentType": 5126,
      "count": 696,
      "max": [
        1.0,
        1.0,
        1.0
      ],
      "min": [
        -1.0,
        -1.0,
        -1.0
      ],
      "type": "VEC3"
    },
    {
      "bufferView": 11,
      "componentType": 5126,
      "count": 696,
      "max": [
        1.0,
        0.8508565262996752
      ],
      "min": [
        0.0,
        0.0
      ],
      "type": "VEC2"
    },
    {
      "bufferView": 12,
      "componentType": 5125,
      "count": 5568,
      "type": "SCALAR"
    },
    {
      "bufferView": 13,
      "componentType": 5126,
      "count": 1570,
      "max": [
        0.1251545428037597,
        0.023965892939697503,
        0.02059998866222899
      ],
      "min": [
        0.11344823932645848,
        0.005159081882602445,
        -0.02060001029697146
      ],
      "type": "VEC3"
    },
    {
      "bufferView": 14,
      "componentType": 5126,
      "count": 1570,
      "max": [
        1.0,
        1.0,
        1.0
      ],
      "min": [
        -0.9999999999999365,
        -0.9999999648386583,
        -1.0
      ],
      "type": "VEC3"
    },
    {
      "bufferView": 15,
      "componentType": 5126,
      "count": 1570,
      "max": [
        0.6990574537641033,
        1.0
      ],
      "min": [
        0.0,
        0.0
      ],
      "type": "VEC2"
    },
    {
      "bufferView": 16,
      "componentType": 5125,
      "count": 7530,
      "type": "SCALAR"
    },
    {
      "bufferView": 17,
      "componentType": 5126,
      "count": 2109,
      "max": [
        -0.03835075586026851,
        -0.017050707580950286,
        0.020599988662228997
      ],
      "min": [
        -0.0773488261701186,
        -0.06027765963407469,
        -0.02060001029697146
      ],
      "type": "VEC3"
    },
    {
      "bufferView": 18,
      "componentType": 5126,
      "count": 2109,
      "max": [
        0.9999987488088882,
        0.9999980918565088,
        1.0
      ],
      "min": [
        -0.9999999995203754,
        -0.9999981000574257,
        -1.0
      ],
      "type": "VEC3"
    },
    {
      "bufferView": 19,
      "componentType": 5126,
      "count": 2109,
      "max": [
        0.9511517169128741,
        1.0
      ],
      "min": [
        0.0,
        0.0
      ],
      "type": "VEC2"
    },
    {
      "bufferView": 20,
      "componentType": 5125,
      "count": 3570,
      "type": "SCALAR"
    },
    {
      "bufferView": 21,
      "componentType": 5126,
      "count": 1007,
      "max": [
        0.1457500451542421,
        0.06193329922055804,
        0.020599988662228997
      ],
      "min": [
        0.07180507631071109,
        -0.014578319975974335,
        -0.02060001029697146
      ],
      "type": "VEC3"
    },
    {
      "bufferView": 22,
      "componentType": 5126,
      "count": 1007,
      "max": [
        1.0,
        1.0,
        1.0
      ],
      "min": [
        -1.0,
        -1.0,
        -1.0
      ],
      "type": "VEC3"
    },
    {
      "bufferView": 23,
      "componentType": 5126,
      "count": 1007,
      "max": [
        1.0,
        0.8968590983174877
      ],
      "min": [
        0.0,
        0.0
      ],
      "type": "VEC2"
    },
    {
      "bufferView": 24,
      "componentType": 5125,
      "count": 2634,
      "type": "SCALAR"
    },
    {
      "bufferView": 25,
      "componentType": 5126,
      "count": 761,
      "max": [
        -0.009613818107426009,
        -0.009995190178773455,
        0.020599988662228983
      ],
      "min": [
        -0.03528847567238877,
        -0.061344318373365736,
        -0.02060001029697146
      ],
      "type": "VEC3"
    },
    {
      "bufferView": 26,
      "componentType": 5126,
      "count": 761,
      "max": [
        1.0,
        1.0,
        1.0
      ],
      "min": [
        -1.0,
        -1.0,
        -1.0
      ],
      "type": "VEC3"
    },
    {
      "bufferView": 27,
      "componentType": 5126,
      "count": 761,
      "max": [
        1.0,
        0.8969122274949395
      ],
      "min": [
        0.0,
        0.0
      ],
      "type": "VEC2"
    },
    {
      "bufferView": 28,
      "componentType": 5125,
      "count": 2310,
      "type": "SCALAR"
    },
    {
      "bufferView": 29,
      "componentType": 5126,
      "count": 669,
      "max": [
        -0.12158722835795452,
        -0.0005548246340777441,
        0.020599988662228997
      ],
      "min": [
        -0.1457500451542421,
        -0.059343040520853985,
        -0.02060001029697146
      ],
      "type": "VEC3"
    },
    {
      "bufferView": 30,
      "componentType": 5126,
      "count": 669,
      "max": [
        1.0,
        1.0,
        1.0
      ],
      "min": [
        -1.0,
        -1.0,
        -1.0
      ],
      "type": "VEC3"
    },
    {
      "bufferView": 31,
      "componentType": 5126,
      "count": 669,
      "max": [
        1.0,
        0.9743041571384913
      ],
      "min": [
        0.0,
        0.0
      ],
      "type": "VEC2"
    },
    {
      "bufferView": 32,
      "componentType": 5125,
      "count": 6336,
      "type": "SCALAR"
    },
    {
      "bufferView": 33,
      "componentType": 5126,
      "count": 1772,
      "max": [
        0.03598850006609133,
        -0.01870632279363002,
        0.020599988662228997
      ],
      "min": [
        -0.00667629376759693,
        -0.06193329922055807,
        -0.02060001029697146
      ],
      "type": "VEC3"
    },
    {
      "bufferView": 34,
      "componentType": 5126,
      "count": 1772,
      "max": [
        0.9999999999989633,
        0.9999999999845545,
        1.0
      ],
      "min": [
        -0.9999999854663988,
        -0.9999999999845528,
        -1.0
      ],
      "type": "VEC3"
    },
    {
      "bufferView": 35,
      "componentType": 5126,
      "count": 1772,
      "max": [
        0.9685755318922096,
        1.0
      ],
      "min": [
        0.0,
        0.0
      ],
      "type": "VEC2"
    },
    {
      "bufferView": 36,
      "componentType": 5125,
      "count": 10746,
      "type": "SCALAR"
    },
    {
      "bufferView": 37,
      "componentType": 5126,
      "count": 3007,
      "max": [
        -0.08199330848118291,
        -0.01705070758095023,
        0.020599988662228976
      ],
      "min": [
        -0.11881213077424935,
        -0.060277659634074665,
        -0.02060001029697146
      ],
      "type": "VEC3"
    },
    {
      "bufferView": 38,
      "componentType": 5126,
      "count": 3007,
      "max": [
        0.9999999983417134,
        0.9999999622302606,
        1.0
      ],
      "min": [
        -0.9999999986945577,
        -0.9999999999999993,
        -1.0
      ],
      "type": "VEC3"
    },
    {
      "bufferView": 39,
      "componentType": 5126,
      "count": 3007,
      "max": [
        1.0,
        0.9773625428665813
      ],
      "min": [
        0.0,
        0.0
      ],
      "type": "VEC2"
    },
    {
      "bufferView": 40,
      "componentType": 5125,
      "count": 10746,
      "type": "SCALAR"
    },
    {
      "bufferView": 41,
      "componentType": 5126,
      "count": 3007,
      "max": [
        0.1269787078791364,
        -0.018706300661156583,
        0.02060001029697146
      ],
      "min": [
        0.09015986610603027,
        -0.061933275479500616,
        -0.02060001029697146
      ],
      "type": "VEC3"
    },
    {
      "bufferView": 42,
      "componentType": 5126,
      "count": 3007,
      "max": [
        0.999999998340969,
        0.9999999622338114,
        1.0
      ],
      "min": [
        -0.9999999986952176,
        -0.999999999999999,
        -1.0
      ],
      "type": "VEC3"
    },
    {
      "bufferView": 43,
      "componentType": 5126,
      "count": 3007,
      "max": [
        1.0,
        0.9773625428665813
      ],
      "min": [
        0.0,
        0.0
      ],
      "type": "VEC2"
    }
  ],
  "asset": {
    "generator": "Adobe Illustrator",
    "version": "2.0"
  },
  "bufferViews": [
    {
      "buffer": 0,
      "byteLength": 240,
      "target": 34963
    },
    {
      "buffer": 0,
      "byteLength": 336,
      "byteOffset": 240,
      "target": 34962
    },
    {
      "buffer": 0,
      "byteLength": 336,
      "byteOffset": 576,
      "target": 34962
    },
    {
      "buffer": 0,
      "byteLength": 224,
      "byteOffset": 912,
      "target": 34962
    },
    {
      "buffer": 0,
      "byteLength": 672,
      "byteOffset": 1136,
      "target": 34963
    },
    {
      "buffer": 0,
      "byteLength": 840,
      "byteOffset": 1808,
      "target": 34962
    },
    {
      "buffer": 0,
      "byteLength": 840,
      "byteOffset": 2648,
      "target": 34962
    },
    {
      "buffer": 0,
      "byteLength": 560,
      "byteOffset": 3488,
      "target": 34962
    },
    {
      "buffer": 0,
      "byteLength": 9744,
      "byteOffset": 4048,
      "target": 34963
    },
    {
      "buffer": 0,
      "byteLength": 8352,
      "byteOffset": 13792,
      "target": 34962
    },
    {
      "buffer": 0,
      "byteLength": 8352,
      "byteOffset": 22144,
      "target": 34962
    },
    {
      "buffer": 0,
      "byteLength": 5568,
      "byteOffset": 30496,
      "target": 34962
    },
    {
      "buffer": 0,
      "byteLength": 22272,
      "byteOffset": 36064,
      "target": 34963
    },
    {
      "buffer": 0,
      "byteLength": 18840,
      "byteOffset": 58336,
      "target": 34962
    },
    {
      "buffer": 0,
      "byteLength": 18840,
      "byteOffset": 77176,
      "target": 34962
    },
    {
      "buffer": 0,
      "byteLength": 12560,
      "byteOffset": 96016,
      "target": 34962
    },
    {
      "buffer": 0,
      "byteLength": 30120,
      "byteOffset": 108576,
      "target": 34963
    },
    {
      "buffer": 0,
      "byteLength": 25308,
      "byteOffset": 138696,
      "target": 34962
    },
    {
      "buffer": 0,
      "byteLength": 25308,
      "byteOffset": 164004,
      "target": 34962
    },
    {
      "buffer": 0,
      "byteLength": 16872,
      "byteOffset": 189312,
      "target": 34962
    },
    {
      "buffer": 0,
      "byteLength": 14280,
      "byteOffset": 206184,
      "target": 34963
    },
    {
      "buffer": 0,
      "byteLength": 12084,
      "byteOffset": 220464,
      "target": 34962
    },
    {
      "buffer": 0,
      "byteLength": 12084,
      "byteOffset": 232548,
      "target": 34962
    },
    {
      "buffer": 0,
      "byteLength": 8056,
      "byteOffset": 244632,
      "target": 34962
    },
    {
      "buffer": 0,
      "byteLength": 10536,
      "byteOffset": 252688,
      "target": 34963
    },
    {
      "buffer": 0,
      "byteLength": 9132,
      "byteOffset": 263224,
      "target": 34962
    },
    {
      "buffer": 0,
      "byteLength": 9132,
      "byteOffset": 272356,
      "target": 34962
    },
    {
      "buffer": 0,
      "byteLength": 6088,
      "byteOffset": 281488,
      "target": 34962
    },
    {
      "buffer": 0,
      "byteLength": 9240,
      "byteOffset": 287576,
      "target": 34963
    },
    {
      "buffer": 0,
      "byteLength": 8028,
      "byteOffset": 296816,
      "target": 34962
    },
    {
      "buffer": 0,
      "byteLength": 8028,
      "byteOffset": 304844,
      "target": 34962
    },
    {
      "buffer": 0,
      "byteLength": 5352,
      "byteOffset": 312872,
      "target": 34962
    },
    {
      "buffer": 0,
      "byteLength": 25344,
      "byteOffset": 318224,
      "target": 34963
    },
    {
      "buffer": 0,
      "byteLength": 21264,
      "byteOffset": 343568,
      "target": 34962
    },
    {
      "buffer": 0,
      "byteLength": 21264,
      "byteOffset": 364832,
      "target": 34962
    },
    {
      "buffer": 0,
      "byteLength": 14176,
      "byteOffset": 386096,
      "target": 34962
    },
    {
      "buffer": 0,
      "byteLength": 42984,
      "byteOffset": 400272,
      "target": 34963
    },
    {
      "buffer": 0,
      "byteLength": 36084,
      "byteOffset": 443256,
      "target": 34962
    },
    {
      "buffer": 0,
      "byteLength": 36084,
      "byteOffset": 479340,
      "target": 34962
    },
    {
      "buffer": 0,
      "byteLength": 24056,
      "byteOffset": 515424,
      "target": 34962
    },
    {
      "buffer": 0,
      "byteLength": 42984,
      "byteOffset": 539480,
      "target": 34963
    },
    {
      "buffer": 0,
      "byteLength": 36084,
      "byteOffset": 582464,
      "target": 34962
    },
    {
      "buffer": 0,
      "byteLength": 36084,
      "byteOffset": 618548,
      "target": 34962
    },
    {
      "buffer": 0,
      "byteLength": 24056,
      "byteOffset": 654632,
      "target": 34962
    }
  ],
  "buffers": [
    {
      "byteLength": 678688,
      "uri": "data:application/octet-stream;base64,"
    }
  ],
  "materials": [
    {
      "doubleSided": true,
      "pbrMetallicRoughness": {
        "baseColorFactor": [
          0.91796875,
          0.3359375,
          0.16015625,
          1.0
        ],
        "metallicFactor": 0.0,
        "roughnessFactor": 0.4000000059604645
      }
    },
    {
      "doubleSided": true,
      "pbrMetallicRoughness": {
        "baseColorFactor": [
          0.91796875,
          0.3359375,
          0.16015625,
          1.0
        ],
        "metallicFactor": 0.0,
        "roughnessFactor": 0.4000000059604645
      }
    },
    {
      "doubleSided": true,
      "pbrMetallicRoughness": {
        "baseColorFactor": [
          0.91796875,
          0.3359375,
          0.16015625,
          1.0
        ],
        "metallicFactor": 0.0,
        "roughnessFactor": 0.4000000059604645
      }
    },
    {
      "doubleSided": true,
      "pbrMetallicRoughness": {
        "baseColorFactor": [
          0.91796875,
          0.3359375,
          0.16015625,
          1.0
        ],
        "metallicFactor": 0.0,
        "roughnessFactor": 0.4000000059604645
      }
    },
    {
      "doubleSided": true,
      "pbrMetallicRoughness": {
        "baseColorFactor": [
          0.91796875,
          0.3359375,
          0.16015625,
          1.0
        ],
        "metallicFactor": 0.0,
        "roughnessFactor": 0.4000000059604645
      }
    },
    {
      "doubleSided": true,
      "pbrMetallicRoughness": {
        "baseColorFactor": [
          0.91796875,
          0.3359375,
          0.16015625,
          1.0
        ],
        "metallicFactor": 0.0,
        "roughnessFactor": 0.4000000059604645
      }
    },
    {
      "doubleSided": true,
      "pbrMetallicRoughness": {
        "baseColorFactor": [
          0.91796875,
          0.3359375,
          0.16015625,
          1.0
        ],
        "metallicFactor": 0.0,
        "roughnessFactor": 0.4000000059604645
      }
    },
    {
      "doubleSided": true,
      "pbrMetallicRoughness": {
        "baseColorFactor": [
          0.91796875,
          0.3359375,
          0.16015625,
          1.0
        ],
        "metallicFactor": 0.0,
        "roughnessFactor": 0.4000000059604645
      }
    },
    {
      "doubleSided": true,
      "pbrMetallicRoughness": {
        "baseColorFactor": [
          0.91796875,
          0.3359375,
          0.16015625,
          1.0
        ],
        "metallicFactor": 0.0,
        "roughnessFactor": 0.4000000059604645
      }
    },
    {
      "doubleSided": true,
      "pbrMetallicRoughness": {
        "baseColorFactor": [
          0.91796875,
          0.3359375,
          0.16015625,
          1.0
        ],
        "metallicFactor": 0.0,
        "roughnessFactor": 0.4000000059604645
      }
    },
    {
      "doubleSided": true,
      "pbrMetallicRoughness": {
        "baseColorFactor": [
          0.91796875,
          0.3359375,
          0.16015625,
          1.0
        ],
        "metallicFactor": 0.0,
        "roughnessFactor": 0.4000000059604645
      }
    }
  ],
  "meshes": [
    {
      "primitives": [
        {
          "attributes": {
            "NORMAL": 2,
            "POSITION": 1,
            "TEXCOORD_0": 3
          },
          "indices": 0,
          "material": 0,
          "mode": 4
        }
      ]
    },
    {
      "primitives": [
        {
          "attributes": {
            "NORMAL": 6,
            "POSITION": 5,
            "TEXCOORD_0": 7
          },
          "indices": 4,
          "material": 1,
          "mode": 4
        }
      ]
    },
    {
      "primitives": [
        {
          "attributes": {
            "NORMAL": 10,
            "POSITION": 9,
            "TEXCOORD_0": 11
          },
          "indices": 8,
          "material": 2,
          "mode": 4
        }
      ]
    },
    {
      "primitives": [
        {
          "attributes": {
            "NORMAL": 14,
            "POSITION": 13,
            "TEXCOORD_0": 15
          },
          "indices": 12,
          "material": 3,
          "mode": 4
        }
      ]
    },
    {
      "primitives": [
        {
          "attributes": {
            "NORMAL": 18,
            "POSITION": 17,
            "TEXCOORD_0": 19
          },
          "indices": 16,
          "material": 4,
          "mode": 4
        }
      ]
    },
    {
      "primitives": [
        {
          "attributes": {
            "NORMAL": 22,
            "POSITION": 21,
            "TEXCOORD_0": 23
          },
          "indices": 20,
          "material": 5,
          "mode": 4
        }
      ]
    },
    {
      "primitives": [
        {
          "attributes": {
            "NORMAL": 26,
            "POSITION": 25,
            "TEXCOORD_0": 27
          },
          "indices": 24,
          "material": 6,
          "mode": 4
        }
      ]
    },
    {
      "primitives": [
        {
          "attributes": {
            "NORMAL": 30,
            "POSITION": 29,
            "TEXCOORD_0": 31
          },
          "indices": 28,
          "material": 7,
          "mode": 4
        }
      ]
    },
    {
      "primitives": [
        {
          "attributes": {
            "NORMAL": 34,
            "POSITION": 33,
            "TEXCOORD_0": 35
          },
          "indices": 32,
          "material": 8,
          "mode": 4
        }
      ]
    },
    {
      "primitives": [
        {
          "attributes": {
            "NORMAL": 38,
            "POSITION": 37,
            "TEXCOORD_0": 39
          },
          "indices": 36,
          "material": 9,
          "mode": 4
        }
      ]
    },
    {
      "primitives": [
        {
          "attributes": {
            "NORMAL": 42,
            "POSITION": 41,
            "TEXCOORD_0": 43
          },
          "indices": 40,
          "material": 10,
          "mode": 4
        }
      ]
    }
  ],
  "nodes": [
    {
      "mesh": 0
    },
    {
      "mesh": 1
    },
    {
      "mesh": 2
    },
    {
      "mesh": 3
    },
    {
      "mesh": 4
    },
    {
      "mesh": 5
    },
    {
      "mesh": 6
    },
    {
      "mesh": 7
    },
    {
      "mesh": 8
    },
    {
      "mesh": 9
    },
    {
      "mesh": 10
    }
  ],
  "scenes": [
    {
      "nodes": [
        0,
        1,
        2,
        3,
        4,
        5,
        6,
        7,
        8,
        9,
        10
      ]
    }
  ]
}
